# WaveFront *.obj file (generated by Autodesk ATF)

mtllib Box Right bottom Half.mtl

g Body2

v 4.200000 -0.000000 2.850000
v 0.000000 0.000000 2.850000
v 0.000000 6.200000 2.850000
v -0.300000 6.200000 2.850000
v -0.300000 -0.300000 2.850000
v 4.500000 -0.300000 2.850000
v 4.500000 6.200000 2.850000
v 4.200000 6.200000 2.850000
v -0.300000 -0.300000 -0.500000
v 4.500000 -0.300000 -0.500000
v -0.300000 6.200000 -0.500000
v 0.000000 0.000000 0.750000
v 0.000000 6.000000 0.750000
v 0.000000 6.000000 0.450000
v 0.000000 0.000000 0.450000
v 0.000000 0.000000 -0.300000
v 0.000000 6.200000 -0.300000
v 4.500000 6.200000 -0.500000
v 4.200000 6.200000 -0.300000
v 4.200000 -0.000000 -0.300000
v 4.200000 0.000000 0.750000
v 3.900000 0.000000 0.750000
v 3.900000 0.000000 0.450000
v 4.200000 0.000000 0.450000
v 0.300000 0.000000 0.450000
v 0.300000 0.000000 0.750000
v 0.300000 6.000000 0.750000
v 0.300000 6.000000 0.450000
v 3.900000 6.000000 0.750000
v 4.200000 6.000000 0.750000
v 4.200000 6.000000 0.450000
v 3.900000 6.000000 0.450000
vt -2.250000 -2.750000 0.000000
vt 2.250000 -3.050000 0.000000
vt 1.950000 -2.750000 0.000000
vt 2.250000 3.450000 0.000000
vt 1.950000 3.450000 0.000000
vt -2.250000 3.450000 0.000000
vt -2.550000 3.450000 0.000000
vt -2.550000 -3.050000 0.000000
vt 4.800000 2.850000 0.000000
vt 0.000000 2.850000 0.000000
vt 4.800000 -0.500000 0.000000
vt 0.000000 -0.500000 0.000000
vt 6.800000 2.850000 0.000000
vt 0.300000 2.850000 0.000000
vt 6.800000 -0.500000 0.000000
vt 0.300000 -0.500000 0.000000
vt 6.200000 -0.300000 0.000000
vt 6.200000 2.850000 0.000000
vt 6.000000 0.750000 0.000000
vt 0.000000 2.850000 0.000000
vt -0.000000 0.750000 0.000000
vt 6.000000 0.450000 0.000000
vt 0.000000 -0.300000 0.000000
vt -0.000000 0.450000 0.000000
vt 0.000000 2.100000 0.000000
vt 0.000000 2.400000 0.000000
vt -3.150000 2.100000 0.000000
vt -3.350000 2.400000 0.000000
vt -3.350000 -2.400000 0.000000
vt -3.150000 -2.100000 0.000000
vt 0.000000 -2.400000 0.000000
vt 0.000000 -2.100000 0.000000
vt 6.500000 2.850000 0.000000
vt 0.000000 2.850000 0.000000
vt 6.500000 -0.500000 0.000000
vt 0.000000 -0.500000 0.000000
vt -2.100000 -3.100000 0.000000
vt 2.100000 -3.100000 0.000000
vt -2.100000 3.100000 0.000000
vt 2.100000 3.100000 0.000000
vt 2.400000 3.250000 0.000000
vt -2.400000 3.250000 0.000000
vt 2.400000 -3.250000 0.000000
vt -2.400000 -3.250000 0.000000
vt 4.200000 0.750000 0.000000
vt 4.200000 2.850000 0.000000
vt 3.900000 0.750000 0.000000
vt 0.000000 2.850000 0.000000
vt 0.300000 0.750000 0.000000
vt -0.000000 0.750000 0.000000
vt 3.900000 0.450000 0.000000
vt 0.300000 0.450000 0.000000
vt 4.200000 -0.300000 0.000000
vt 0.000000 -0.300000 0.000000
vt -0.000000 0.450000 0.000000
vt 4.200000 0.450000 0.000000
vt 0.000000 0.000000 0.000000
vt 6.000000 0.000000 0.000000
vt 0.000000 0.300000 0.000000
vt 6.000000 0.300000 0.000000
vt 0.000000 0.000000 0.000000
vt 0.300000 0.000000 0.000000
vt 0.000000 0.300000 0.000000
vt 0.300000 0.300000 0.000000
vt -0.150000 -3.000000 0.000000
vt 0.150000 -3.000000 0.000000
vt -0.150000 3.000000 0.000000
vt 0.150000 3.000000 0.000000
vt -0.150000 -3.000000 0.000000
vt 0.150000 -3.000000 0.000000
vt -0.150000 3.000000 0.000000
vt 0.150000 3.000000 0.000000
vt 0.000000 0.000000 0.000000
vt 0.300000 0.000000 0.000000
vt 0.000000 0.300000 0.000000
vt 0.300000 0.300000 0.000000
vt 0.000000 0.000000 0.000000
vt 6.000000 0.000000 0.000000
vt 0.000000 0.300000 0.000000
vt 6.000000 0.300000 0.000000
vt 0.150000 3.000000 0.000000
vt -0.150000 3.000000 0.000000
vt 0.150000 -3.000000 0.000000
vt -0.150000 -3.000000 0.000000
vt -0.150000 -3.000000 0.000000
vt 0.150000 -3.000000 0.000000
vt -0.150000 3.000000 0.000000
vt 0.150000 3.000000 0.000000
vt 6.200000 0.750000 0.000000
vt 6.200000 2.850000 0.000000
vt 0.200000 0.750000 0.000000
vt -0.000000 2.850000 0.000000
vt 0.000000 -0.300000 0.000000
vt 0.200000 0.450000 0.000000
vt 6.200000 -0.300000 0.000000
vt 6.200000 0.450000 0.000000
vn 0.000000 0.000000 1.000000
vn 0.000000 0.000000 1.000000
vn 0.000000 0.000000 1.000000
vn 0.000000 0.000000 1.000000
vn 0.000000 0.000000 1.000000
vn 0.000000 0.000000 1.000000
vn 0.000000 0.000000 1.000000
vn 0.000000 0.000000 1.000000
vn 0.000000 -1.000000 0.000000
vn 0.000000 -1.000000 0.000000
vn 0.000000 -1.000000 0.000000
vn 0.000000 -1.000000 0.000000
vn -1.000000 0.000000 0.000000
vn -1.000000 0.000000 0.000000
vn -1.000000 0.000000 0.000000
vn -1.000000 0.000000 0.000000
vn 1.000000 -0.000000 0.000000
vn 1.000000 -0.000000 0.000000
vn 1.000000 -0.000000 0.000000
vn 1.000000 -0.000000 0.000000
vn 1.000000 -0.000000 0.000000
vn 1.000000 -0.000000 0.000000
vn 1.000000 -0.000000 0.000000
vn 1.000000 -0.000000 0.000000
vn -0.000000 1.000000 -0.000000
vn -0.000000 1.000000 -0.000000
vn -0.000000 1.000000 -0.000000
vn -0.000000 1.000000 -0.000000
vn -0.000000 1.000000 -0.000000
vn -0.000000 1.000000 -0.000000
vn -0.000000 1.000000 -0.000000
vn -0.000000 1.000000 -0.000000
vn 1.000000 0.000000 0.000000
vn 1.000000 0.000000 0.000000
vn 1.000000 0.000000 0.000000
vn 1.000000 0.000000 0.000000
vn -0.000000 -0.000000 1.000000
vn -0.000000 -0.000000 1.000000
vn -0.000000 -0.000000 1.000000
vn -0.000000 -0.000000 1.000000
vn 0.000000 0.000000 -1.000000
vn 0.000000 0.000000 -1.000000
vn 0.000000 0.000000 -1.000000
vn 0.000000 0.000000 -1.000000
vn 0.000000 1.000000 -0.000000
vn 0.000000 1.000000 -0.000000
vn 0.000000 1.000000 -0.000000
vn 0.000000 1.000000 -0.000000
vn 0.000000 1.000000 -0.000000
vn 0.000000 1.000000 -0.000000
vn 0.000000 1.000000 -0.000000
vn 0.000000 1.000000 -0.000000
vn 0.000000 1.000000 -0.000000
vn 0.000000 1.000000 -0.000000
vn 0.000000 1.000000 -0.000000
vn 0.000000 1.000000 -0.000000
vn 1.000000 0.000000 0.000000
vn 1.000000 0.000000 0.000000
vn 1.000000 0.000000 0.000000
vn 1.000000 0.000000 0.000000
vn -0.000000 1.000000 0.000000
vn -0.000000 1.000000 0.000000
vn -0.000000 1.000000 0.000000
vn -0.000000 1.000000 0.000000
vn 0.000000 0.000000 1.000000
vn 0.000000 0.000000 1.000000
vn 0.000000 0.000000 1.000000
vn 0.000000 0.000000 1.000000
vn 0.000000 0.000000 -1.000000
vn 0.000000 0.000000 -1.000000
vn 0.000000 0.000000 -1.000000
vn 0.000000 0.000000 -1.000000
vn 0.000000 1.000000 0.000000
vn 0.000000 1.000000 0.000000
vn 0.000000 1.000000 0.000000
vn 0.000000 1.000000 0.000000
vn -1.000000 -0.000000 -0.000000
vn -1.000000 -0.000000 -0.000000
vn -1.000000 -0.000000 -0.000000
vn -1.000000 -0.000000 -0.000000
vn 0.000000 0.000000 1.000000
vn 0.000000 0.000000 1.000000
vn 0.000000 0.000000 1.000000
vn 0.000000 0.000000 1.000000
vn 0.000000 0.000000 -1.000000
vn 0.000000 0.000000 -1.000000
vn 0.000000 0.000000 -1.000000
vn 0.000000 0.000000 -1.000000
vn -1.000000 0.000000 0.000000
vn -1.000000 0.000000 0.000000
vn -1.000000 0.000000 0.000000
vn -1.000000 0.000000 0.000000
vn -1.000000 0.000000 0.000000
vn -1.000000 0.000000 0.000000
vn -1.000000 0.000000 0.000000
vn -1.000000 0.000000 0.000000
usemtl Steel_-_Satin
f 2/1/1 6/2/2 1/3/3
f 1/3/3 6/2/2 7/4/4
f 1/3/3 7/4/4 8/5/5
f 3/6/6 4/7/7 2/1/1
f 2/1/1 4/7/7 5/8/8
f 2/1/1 5/8/8 6/2/2
f 6/9/9 5/10/10 10/11/11
f 10/11/11 5/10/10 9/12/12
f 5/13/13 4/14/14 9/15/15
f 9/15/15 4/14/14 11/16/16
f 17/17/17 3/18/18 13/19/19
f 13/19/19 3/18/18 2/20/20
f 13/19/19 2/20/20 12/21/21
f 13/19/19 14/22/22 17/17/17
f 17/17/17 14/22/22 16/23/23
f 16/23/23 14/22/22 15/24/24
f 8/25/25 7/26/26 19/27/27
f 19/27/27 7/26/26 18/28/28
f 19/27/27 18/28/28 11/29/29
f 19/27/27 11/29/29 17/30/30
f 17/30/30 11/29/29 4/31/31
f 17/30/30 4/31/31 3/32/32
f 7/33/33 6/34/34 18/35/35
f 18/35/35 6/34/34 10/36/36
f 16/37/37 20/38/38 17/39/39
f 17/39/39 20/38/38 19/40/40
f 11/41/41 18/42/42 9/43/43
f 9/43/43 18/42/42 10/44/44
f 12/45/45 2/46/46 26/47/47
f 26/47/47 2/46/46 1/48/48
f 26/47/47 1/48/48 22/49/49
f 22/49/49 1/48/48 21/50/50
f 26/47/47 22/49/49 25/51/51
f 25/51/51 22/49/49 23/52/52
f 25/51/51 23/52/52 16/53/53
f 16/53/53 23/52/52 20/54/54
f 20/54/54 23/52/52 24/55/55
f 16/53/53 15/56/56 25/51/51
f 27/57/57 26/58/58 28/59/59
f 28/59/59 26/58/58 25/60/60
f 13/61/61 27/62/62 14/63/63
f 14/63/63 27/62/62 28/64/64
f 12/65/65 26/66/66 13/67/67
f 13/67/67 26/66/66 27/68/68
f 25/69/69 15/70/70 28/71/71
f 28/71/71 15/70/70 14/72/72
f 29/73/73 30/74/74 32/75/75
f 32/75/75 30/74/74 31/76/76
f 22/77/77 29/78/78 23/79/79
f 23/79/79 29/78/78 32/80/80
f 30/81/81 29/82/82 21/83/83
f 21/83/83 29/82/82 22/84/84
f 24/85/85 23/86/86 31/87/87
f 31/87/87 23/86/86 32/88/88
f 21/89/89 1/90/90 30/91/91
f 30/91/91 1/90/90 8/92/92
f 30/91/91 8/92/92 19/93/93
f 30/91/91 19/93/93 31/94/94
f 31/94/94 19/93/93 20/95/95
f 31/94/94 20/95/95 24/96/96
# 32 vertices
# 96 texture params
# 96 normals
# 60 facets

# 1 groups
