# WaveFront *.obj file (generated by Autodesk ATF)

mtllib Box Right Top Half.mtl

g Body2

v 0.000000 0.000000 2.850000
v 4.200000 -0.000000 2.850000
v 4.200000 6.200000 2.850000
v 4.500000 6.200000 2.850000
v 4.500000 -0.300000 2.850000
v -0.300000 -0.300000 2.850000
v -0.300000 6.200000 2.850000
v 0.000000 6.200000 2.850000
v 4.500000 -0.300000 6.200000
v -0.300000 -0.300000 6.200000
v 4.500000 6.200000 6.200000
v 4.200000 0.000000 4.450000
v 4.200000 6.000000 4.450000
v 4.200000 6.000000 4.750000
v 4.200000 0.000000 4.750000
v 4.200000 0.000000 6.000000
v 4.200000 6.200000 6.000000
v -0.300000 6.200000 6.200000
v 0.000000 6.200000 6.000000
v 2.100000 2.900000 6.200000
v 3.600000 2.900000 6.200000
v 3.600000 1.400000 6.200000
v 2.100000 1.400000 6.200000
v 0.000000 0.000000 6.000000
v 3.600000 2.900000 6.000000
v 2.100000 2.900000 6.000000
v 2.100000 1.400000 6.000000
v 3.600000 1.400000 6.000000
v 0.300000 6.000000 4.750000
v 0.300000 0.000000 4.750000
v 0.300000 0.000000 4.450000
v 0.300000 6.000000 4.450000
v 0.000000 6.000000 4.750000
v 0.000000 6.000000 4.450000
v 0.000000 0.000000 4.750000
v 0.000000 0.000000 4.450000
v 3.900000 0.000000 4.750000
v 3.900000 0.000000 4.450000
v 3.900000 6.000000 4.750000
v 3.900000 6.000000 4.450000
vt -2.090983 -3.038816 0.000000
vt 2.409017 -3.338816 0.000000
vt 2.109017 -3.038816 0.000000
vt 2.409017 3.161184 0.000000
vt 2.109017 3.161184 0.000000
vt -2.090983 3.161184 0.000000
vt -2.390983 3.161184 0.000000
vt -2.390983 -3.338816 0.000000
vt 0.000000 2.850000 0.000000
vt 4.800000 2.850000 0.000000
vt 0.000000 6.200000 0.000000
vt 4.800000 6.200000 0.000000
vt 0.000000 2.850000 0.000000
vt 6.500000 2.850000 0.000000
vt 0.000000 6.200000 0.000000
vt 6.500000 6.200000 0.000000
vt -0.000000 6.000000 0.000000
vt -0.000000 2.850000 0.000000
vt 0.200000 4.450000 0.000000
vt 6.200000 2.850000 0.000000
vt 6.200000 4.450000 0.000000
vt 0.200000 4.750000 0.000000
vt 6.200000 6.000000 0.000000
vt 6.200000 4.750000 0.000000
vt 0.000000 -2.100000 0.000000
vt 0.000000 -2.400000 0.000000
vt 3.150000 -2.100000 0.000000
vt 3.350000 -2.400000 0.000000
vt 3.150000 2.100000 0.000000
vt 3.350000 2.400000 0.000000
vt 0.000000 2.400000 0.000000
vt 0.000000 2.100000 0.000000
vt -2.400000 3.250000 0.000000
vt 0.000000 -0.050000 0.000000
vt 2.400000 3.250000 0.000000
vt 1.500000 -0.050000 0.000000
vt 2.400000 -3.250000 0.000000
vt 1.500000 -1.550000 0.000000
vt 0.000000 -1.550000 0.000000
vt -2.400000 -3.250000 0.000000
vt -2.100000 -2.950000 0.000000
vt -1.500000 -0.050000 0.000000
vt -2.100000 3.250000 0.000000
vt -0.000000 -0.050000 0.000000
vt 2.100000 3.250000 0.000000
vt 2.100000 -2.950000 0.000000
vt -0.000000 -1.550000 0.000000
vt -1.500000 -1.550000 0.000000
vt 0.000000 0.500000 0.000000
vt 1.500000 0.500000 0.000000
vt 0.000000 0.700000 0.000000
vt 1.500000 0.700000 0.000000
vt 0.000000 0.500000 0.000000
vt 1.500000 0.500000 0.000000
vt 0.000000 0.700000 0.000000
vt 1.500000 0.700000 0.000000
vt 0.000000 0.500000 0.000000
vt 1.500000 0.500000 0.000000
vt 0.000000 0.700000 0.000000
vt 1.500000 0.700000 0.000000
vt 0.000000 0.500000 0.000000
vt 1.500000 0.500000 0.000000
vt 0.000000 0.700000 0.000000
vt 1.500000 0.700000 0.000000
vt -0.000000 0.000000 0.000000
vt 6.000000 0.000000 0.000000
vt 0.000000 0.300000 0.000000
vt 6.000000 0.300000 0.000000
vt 0.000000 0.000000 0.000000
vt 0.300000 0.000000 0.000000
vt 0.000000 0.300000 0.000000
vt 0.300000 0.300000 0.000000
vt -0.150000 -3.000000 0.000000
vt 0.150000 -3.000000 0.000000
vt -0.150000 3.000000 0.000000
vt 0.150000 3.000000 0.000000
vt 0.150000 3.000000 0.000000
vt -0.150000 3.000000 0.000000
vt 0.150000 -3.000000 0.000000
vt -0.150000 -3.000000 0.000000
vt 0.000000 4.450000 0.000000
vt 0.000000 2.850000 0.000000
vt 0.300000 4.450000 0.000000
vt 4.200000 2.850000 0.000000
vt 3.900000 4.450000 0.000000
vt 4.200000 4.450000 0.000000
vt 0.300000 4.750000 0.000000
vt 3.900000 4.750000 0.000000
vt 0.000000 6.000000 0.000000
vt 4.200000 6.000000 0.000000
vt 4.200000 4.750000 0.000000
vt 0.000000 4.750000 0.000000
vt 0.000000 0.000000 0.000000
vt 6.000000 0.000000 0.000000
vt 0.000000 0.300000 0.000000
vt 6.000000 0.300000 0.000000
vt 0.000000 0.000000 0.000000
vt 0.300000 0.000000 0.000000
vt 0.000000 0.300000 0.000000
vt 0.300000 0.300000 0.000000
vt 0.150000 3.000000 0.000000
vt -0.150000 3.000000 0.000000
vt 0.150000 -3.000000 0.000000
vt -0.150000 -3.000000 0.000000
vt 0.150000 3.000000 0.000000
vt -0.150000 3.000000 0.000000
vt 0.150000 -3.000000 0.000000
vt -0.150000 -3.000000 0.000000
vt -0.000000 4.450000 0.000000
vt 0.000000 2.850000 0.000000
vt 6.000000 4.450000 0.000000
vt 6.200000 2.850000 0.000000
vt 6.200000 6.000000 0.000000
vt 6.000000 4.750000 0.000000
vt -0.000000 6.000000 0.000000
vt -0.000000 4.750000 0.000000
vt 0.300000 2.850000 0.000000
vt 6.800000 2.850000 0.000000
vt 0.300000 6.200000 0.000000
vt 6.800000 6.200000 0.000000
vn -0.000000 -0.000000 -1.000000
vn -0.000000 -0.000000 -1.000000
vn -0.000000 -0.000000 -1.000000
vn -0.000000 -0.000000 -1.000000
vn -0.000000 -0.000000 -1.000000
vn -0.000000 -0.000000 -1.000000
vn -0.000000 -0.000000 -1.000000
vn -0.000000 -0.000000 -1.000000
vn 0.000000 -1.000000 0.000000
vn 0.000000 -1.000000 0.000000
vn 0.000000 -1.000000 0.000000
vn 0.000000 -1.000000 0.000000
vn 1.000000 0.000000 0.000000
vn 1.000000 0.000000 0.000000
vn 1.000000 0.000000 0.000000
vn 1.000000 0.000000 0.000000
vn -1.000000 0.000000 0.000000
vn -1.000000 0.000000 0.000000
vn -1.000000 0.000000 0.000000
vn -1.000000 0.000000 0.000000
vn -1.000000 0.000000 0.000000
vn -1.000000 0.000000 0.000000
vn -1.000000 0.000000 0.000000
vn -1.000000 0.000000 0.000000
vn -0.000000 1.000000 -0.000000
vn -0.000000 1.000000 -0.000000
vn -0.000000 1.000000 -0.000000
vn -0.000000 1.000000 -0.000000
vn -0.000000 1.000000 -0.000000
vn -0.000000 1.000000 -0.000000
vn -0.000000 1.000000 -0.000000
vn -0.000000 1.000000 -0.000000
vn 0.000000 0.000000 1.000000
vn 0.000000 0.000000 1.000000
vn 0.000000 0.000000 1.000000
vn 0.000000 0.000000 1.000000
vn 0.000000 0.000000 1.000000
vn 0.000000 0.000000 1.000000
vn 0.000000 0.000000 1.000000
vn 0.000000 0.000000 1.000000
vn -0.000000 -0.000000 -1.000000
vn -0.000000 -0.000000 -1.000000
vn -0.000000 -0.000000 -1.000000
vn -0.000000 -0.000000 -1.000000
vn -0.000000 -0.000000 -1.000000
vn -0.000000 -0.000000 -1.000000
vn -0.000000 -0.000000 -1.000000
vn -0.000000 -0.000000 -1.000000
vn -1.000000 0.000000 0.000000
vn -1.000000 0.000000 0.000000
vn -1.000000 0.000000 0.000000
vn -1.000000 0.000000 0.000000
vn 0.000000 1.000000 -0.000000
vn 0.000000 1.000000 -0.000000
vn 0.000000 1.000000 -0.000000
vn 0.000000 1.000000 -0.000000
vn 1.000000 0.000000 0.000000
vn 1.000000 0.000000 0.000000
vn 1.000000 0.000000 0.000000
vn 1.000000 0.000000 0.000000
vn 0.000000 -1.000000 0.000000
vn 0.000000 -1.000000 0.000000
vn 0.000000 -1.000000 0.000000
vn 0.000000 -1.000000 0.000000
vn 1.000000 -0.000000 0.000000
vn 1.000000 -0.000000 0.000000
vn 1.000000 -0.000000 0.000000
vn 1.000000 -0.000000 0.000000
vn 0.000000 1.000000 0.000000
vn 0.000000 1.000000 0.000000
vn 0.000000 1.000000 0.000000
vn 0.000000 1.000000 0.000000
vn 0.000000 0.000000 1.000000
vn 0.000000 0.000000 1.000000
vn 0.000000 0.000000 1.000000
vn 0.000000 0.000000 1.000000
vn 0.000000 0.000000 -1.000000
vn 0.000000 0.000000 -1.000000
vn 0.000000 0.000000 -1.000000
vn 0.000000 0.000000 -1.000000
vn 0.000000 1.000000 -0.000000
vn 0.000000 1.000000 -0.000000
vn 0.000000 1.000000 -0.000000
vn 0.000000 1.000000 -0.000000
vn 0.000000 1.000000 -0.000000
vn 0.000000 1.000000 -0.000000
vn 0.000000 1.000000 -0.000000
vn 0.000000 1.000000 -0.000000
vn 0.000000 1.000000 -0.000000
vn 0.000000 1.000000 -0.000000
vn 0.000000 1.000000 -0.000000
vn 0.000000 1.000000 -0.000000
vn -1.000000 0.000000 0.000000
vn -1.000000 0.000000 0.000000
vn -1.000000 0.000000 0.000000
vn -1.000000 0.000000 0.000000
vn -0.000000 1.000000 0.000000
vn -0.000000 1.000000 0.000000
vn -0.000000 1.000000 0.000000
vn -0.000000 1.000000 0.000000
vn 0.000000 0.000000 1.000000
vn 0.000000 0.000000 1.000000
vn 0.000000 0.000000 1.000000
vn 0.000000 0.000000 1.000000
vn 0.000000 0.000000 -1.000000
vn 0.000000 0.000000 -1.000000
vn 0.000000 0.000000 -1.000000
vn 0.000000 0.000000 -1.000000
vn 1.000000 -0.000000 0.000000
vn 1.000000 -0.000000 0.000000
vn 1.000000 -0.000000 0.000000
vn 1.000000 -0.000000 0.000000
vn 1.000000 -0.000000 0.000000
vn 1.000000 -0.000000 0.000000
vn 1.000000 -0.000000 0.000000
vn 1.000000 -0.000000 0.000000
vn -1.000000 0.000000 0.000000
vn -1.000000 0.000000 0.000000
vn -1.000000 0.000000 0.000000
vn -1.000000 0.000000 0.000000
usemtl Steel_-_Satin
f 2/1/1 6/2/2 1/3/3
f 1/3/3 6/2/2 7/4/4
f 1/3/3 7/4/4 8/5/5
f 3/6/6 4/7/7 2/1/1
f 2/1/1 4/7/7 5/8/8
f 2/1/1 5/8/8 6/2/2
f 6/9/9 5/10/10 10/11/11
f 10/11/11 5/10/10 9/12/12
f 5/13/13 4/14/14 9/15/15
f 9/15/15 4/14/14 11/16/16
f 17/17/17 3/18/18 13/19/19
f 13/19/19 3/18/18 2/20/20
f 13/19/19 2/20/20 12/21/21
f 13/19/19 14/22/22 17/17/17
f 17/17/17 14/22/22 16/23/23
f 16/23/23 14/22/22 15/24/24
f 8/25/25 7/26/26 19/27/27
f 19/27/27 7/26/26 18/28/28
f 19/27/27 18/28/28 17/29/29
f 17/29/29 18/28/28 11/30/30
f 17/29/29 11/30/30 4/31/31
f 4/31/31 3/32/32 17/29/29
f 18/33/33 20/34/34 11/35/35
f 11/35/35 20/34/34 21/36/36
f 11/35/35 21/36/36 9/37/37
f 9/37/37 21/36/36 22/38/38
f 9/37/37 22/38/38 23/39/39
f 18/33/33 10/40/40 20/34/34
f 20/34/34 10/40/40 23/39/39
f 23/39/39 10/40/40 9/37/37
f 16/41/41 25/42/42 17/43/43
f 17/43/43 25/42/42 26/44/44
f 17/43/43 26/44/44 19/45/45
f 19/45/45 26/44/44 24/46/46
f 24/46/46 26/44/44 27/47/47
f 24/46/46 27/47/47 16/41/41
f 16/41/41 27/47/47 28/48/48
f 16/41/41 28/48/48 25/42/42
f 25/49/49 28/50/50 21/51/51
f 21/51/51 28/50/50 22/52/52
f 28/53/53 27/54/54 22/55/55
f 22/55/55 27/54/54 23/56/56
f 27/57/57 26/58/58 23/59/59
f 23/59/59 26/58/58 20/60/60
f 26/61/61 25/62/62 20/63/63
f 20/63/63 25/62/62 21/64/64
f 29/65/65 30/66/66 32/67/67
f 32/67/67 30/66/66 31/68/68
f 33/69/69 29/70/70 34/71/71
f 34/71/71 29/70/70 32/72/72
f 35/73/73 30/74/74 33/75/75
f 33/75/75 30/74/74 29/76/76
f 34/77/77 32/78/78 36/79/79
f 36/79/79 32/78/78 31/80/80
f 12/81/81 2/82/82 38/83/83
f 38/83/83 2/82/82 1/84/84
f 38/83/83 1/84/84 31/85/85
f 31/85/85 1/84/84 36/86/86
f 38/83/83 31/85/85 37/87/87
f 37/87/87 31/85/85 30/88/88
f 37/87/87 30/88/88 16/89/89
f 16/89/89 30/88/88 24/90/90
f 24/90/90 30/88/88 35/91/91
f 16/89/89 15/92/92 37/87/87
f 37/93/93 39/94/94 38/95/95
f 38/95/95 39/94/94 40/96/96
f 39/97/97 14/98/98 40/99/99
f 40/99/99 14/98/98 13/100/100
f 14/101/101 39/102/102 15/103/103
f 15/103/103 39/102/102 37/104/104
f 40/105/105 13/106/106 38/107/107
f 38/107/107 13/106/106 12/108/108
f 36/109/109 1/110/110 34/111/111
f 34/111/111 1/110/110 8/112/112
f 34/111/111 8/112/112 19/113/113
f 34/111/111 19/113/113 33/114/114
f 33/114/114 19/113/113 24/115/115
f 33/114/114 24/115/115 35/116/116
f 7/117/117 6/118/118 18/119/119
f 18/119/119 6/118/118 10/120/120
# 40 vertices
# 120 texture params
# 120 normals
# 80 facets

# 1 groups
